# xmcd CD database file
#
# Track frame offsets:
#	150
#	26507
#	62862
#	85505
#	118817
#	150197
#	186420
#	228757
#
# Disc length: 3489 seconds
#
# Revision: 0
# Processed by: cddbd v1.4PL0 Copyright (c) Steve Scherf et al.
# Submitted via: NeoAudio 9.9.9
#
DISCID=570d9f08
DTITLE=Common Ground - Common Ground
DYEAR=1995
DGENRE=Jazz
TTITLE0=Full Circle
TTITLE1=The Range
TTITLE2=Numerology
TTITLE3=T-Time
TTITLE4=Big Sky Country
TTITLE5=Rose Hall
TTITLE6=Quest
TTITLE7=Into Deep
EXTD=YEAR: 1995
EXTT0=
EXTT1=
EXTT2=
EXTT3=
EXTT4=
EXTT5=
EXTT6=
EXTT7=
PLAYORDER=
